<svg width="362" height="104" viewBox="0 0 362 104" fill="none" xmlns="http://www.w3.org/2000/svg">
<path d="M52 36V18" stroke="white" stroke-width="2" stroke-linecap="round"/>
<path d="M62 42L76 28" stroke="white" stroke-width="2" stroke-linecap="round"/>
<path d="M62 52H80" stroke="white" stroke-width="2" stroke-linecap="round"/>
<path d="M62 62L74 74" stroke="white" stroke-width="2" stroke-linecap="round"/>
<path d="M52 68V86" stroke="white" stroke-width="2" stroke-linecap="round"/>
<path d="M42 62L30 74" stroke="white" stroke-width="2" stroke-linecap="round"/>
<path d="M42 52H24" stroke="white" stroke-width="2" stroke-linecap="round"/>
<path d="M42 42L30 30" stroke="white" stroke-width="2" stroke-linecap="round"/>
<path d="M58 36H46C43.7909 36 42 37.7909 42 40V64C42 66.2091 43.7909 68 46 68H58C60.2091 68 62 66.2091 62 64V40C62 37.7909 60.2091 36 58 36Z" stroke="white" stroke-width="2"/>
<path d="M52 16C55.3137 16 58 13.3137 58 10C58 6.68629 55.3137 4 52 4C48.6863 4 46 6.68629 46 10C46 13.3137 48.6863 16 52 16Z" stroke="white" stroke-width="2"/>
<path d="M52 11.8C52.9941 11.8 53.7999 10.9941 53.7999 10C53.7999 9.00588 52.9941 8.2 52 8.2C51.0058 8.2 50.2 9.00588 50.2 10C50.2 10.9941 51.0058 11.8 52 11.8Z" fill="white"/>
<path d="M71 24C75 24 80 29 80 33" stroke="white" stroke-width="2" stroke-linecap="round"/>
<path d="M72 19C78 20 84 26 85 32" stroke="white" stroke-width="2" stroke-linecap="round"/>
<path d="M88 45L95 52L88 59L81 52L88 45Z" stroke="white" stroke-width="2" stroke-linejoin="round"/>
<path d="M80 83.5C81.933 83.5 83.5 81.933 83.5 80C83.5 78.067 81.933 76.5 80 76.5C78.067 76.5 76.5 78.067 76.5 80C76.5 81.933 78.067 83.5 80 83.5Z" stroke="white" stroke-width="2"/>
<path d="M80 88C84.4183 88 88 84.4183 88 80C88 75.5817 84.4183 72 80 72C75.5817 72 72 75.5817 72 80C72 84.4183 75.5817 88 80 88Z" stroke="white" stroke-width="2"/>
<path d="M44 90C49.3333 86 54.6667 86 60 90" stroke="white" stroke-width="2" stroke-linecap="round"/>
<path d="M46 96C50 92.6667 54 92.6667 58 96" stroke="white" stroke-width="2" stroke-linecap="round"/>
<path d="M27 87L29 74L16 76" stroke="white" stroke-width="2" stroke-linecap="round" stroke-linejoin="round"/>
<path d="M16 44V60" stroke="white" stroke-width="2" stroke-linecap="round"/>
<path d="M8 52H24" stroke="white" stroke-width="2" stroke-linecap="round"/>
<path d="M30 30L16 27L27 16L30 30Z" stroke="white" stroke-width="2" stroke-linejoin="round"/>
<path d="M155.242 33.6364C155.242 36.188 154.799 38.4176 153.914 40.3253C153.029 42.2249 151.797 43.7019 150.219 44.7564C148.65 45.8108 146.839 46.3381 144.786 46.3381C142.726 46.3381 140.906 45.8108 139.329 44.7564C137.759 43.6939 136.532 42.2128 135.646 40.3132C134.761 38.4055 134.318 36.1799 134.318 33.6364C134.318 31.0848 134.761 28.8591 135.646 26.9595C136.54 25.0599 137.771 23.5829 139.341 22.5284C140.911 21.4659 142.726 20.9347 144.786 20.9347C146.839 20.9347 148.65 21.4619 150.219 22.5163C151.797 23.5708 153.029 25.0518 153.914 26.9595C154.799 28.8591 155.242 31.0848 155.242 33.6364ZM153.769 33.6364C153.769 31.3423 153.383 29.3542 152.61 27.6719C151.845 25.9896 150.787 24.6896 149.435 23.772C148.082 22.8464 146.533 22.3835 144.786 22.3835C143.04 22.3835 141.49 22.8423 140.138 23.7599C138.786 24.6695 137.723 25.9695 136.95 27.6598C136.186 29.3421 135.803 31.3343 135.803 33.6364C135.803 35.9143 136.182 37.8984 136.938 39.5888C137.703 41.2711 138.761 42.575 140.114 43.5007C141.466 44.4264 143.023 44.8892 144.786 44.8892C146.533 44.8892 148.082 44.4304 149.435 43.5128C150.787 42.5871 151.845 41.2831 152.61 39.6009C153.383 37.9186 153.769 35.9304 153.769 33.6364ZM167.14 46V21.2727H174.759C176.328 21.2727 177.673 21.5947 178.792 22.2386C179.918 22.8826 180.784 23.764 181.387 24.8828C181.991 26.0017 182.293 27.2775 182.293 28.7102C182.293 30.1269 181.991 31.3946 181.387 32.5135C180.784 33.6323 179.918 34.5178 178.792 35.1697C177.673 35.8137 176.333 36.1357 174.771 36.1357H168.203V34.7351H174.735C176.007 34.7351 177.093 34.4775 177.995 33.9624C178.896 33.4392 179.588 32.7268 180.071 31.8253C180.554 30.9157 180.796 29.8774 180.796 28.7102C180.796 27.535 180.554 26.4927 180.071 25.5831C179.588 24.6735 178.892 23.9612 177.983 23.446C177.081 22.9309 175.994 22.6733 174.723 22.6733H168.65V46H167.14ZM194.091 46V21.2727H207.856V22.6733H195.601V32.924H207.119V34.3246H195.601V44.5994H208.145V46H194.091ZM239.009 21.2727V46H237.536L221.767 24.0135H221.622V46H220.113V21.2727H221.598L237.366 43.2834H237.511V21.2727H239.009Z" fill="white"/>
<path d="M134.439 58.2727H139.92L147.261 76.1903H147.551L154.892 58.2727H160.374V83H156.075V66.0121H155.846L149.012 82.9276H145.8L138.967 65.9759H138.737V83H134.439V58.2727ZM193.347 70.6364C193.347 73.3007 192.848 75.5826 191.849 77.4822C190.859 79.3738 189.507 80.8227 187.793 81.8288C186.086 82.835 184.15 83.3381 181.985 83.3381C179.82 83.3381 177.88 82.835 176.165 81.8288C174.459 80.8146 173.107 79.3617 172.109 77.4702C171.119 75.5705 170.624 73.2926 170.624 70.6364C170.624 67.9721 171.119 65.6941 172.109 63.8026C173.107 61.9029 174.459 60.45 176.165 59.4439C177.88 58.4377 179.82 57.9347 181.985 57.9347C184.15 57.9347 186.086 58.4377 187.793 59.4439C189.507 60.45 190.859 61.9029 191.849 63.8026C192.848 65.6941 193.347 67.9721 193.347 70.6364ZM188.843 70.6364C188.843 68.7609 188.549 67.1792 187.962 65.8913C187.382 64.5954 186.577 63.6174 185.547 62.9574C184.517 62.2893 183.329 61.9553 181.985 61.9553C180.641 61.9553 179.454 62.2893 178.423 62.9574C177.393 63.6174 176.584 64.5954 175.996 65.8913C175.417 67.1792 175.127 68.7609 175.127 70.6364C175.127 72.5118 175.417 74.0975 175.996 75.3935C176.584 76.6813 177.393 77.6593 178.423 78.3274C179.454 78.9875 180.641 79.3175 181.985 79.3175C183.329 79.3175 184.517 78.9875 185.547 78.3274C186.577 77.6593 187.382 76.6813 187.962 75.3935C188.549 74.0975 188.843 72.5118 188.843 70.6364ZM211.961 83H203.581V58.2727H212.13C214.585 58.2727 216.694 58.7678 218.457 59.7578C220.227 60.7398 221.588 62.1525 222.537 63.9957C223.487 65.839 223.962 68.0445 223.962 70.6122C223.962 73.188 223.483 75.4015 222.525 77.2528C221.576 79.1042 220.203 80.5249 218.408 81.5149C216.621 82.505 214.472 83 211.961 83ZM208.061 79.1243H211.743C213.466 79.1243 214.903 78.8104 216.054 78.1825C217.205 77.5466 218.07 76.6009 218.65 75.3452C219.229 74.0814 219.519 72.5038 219.519 70.6122C219.519 68.7206 219.229 67.151 218.65 65.9034C218.07 64.6477 217.213 63.71 216.078 63.0902C214.951 62.4624 213.55 62.1484 211.876 62.1484H208.061V79.1243ZM236.066 83H231.284L239.99 58.2727H245.519L254.237 83H249.455L242.851 63.3438H242.658L236.066 83ZM236.222 73.3047H249.262V76.9027H236.222V73.3047ZM263.494 83V58.2727H267.973V79.245H278.864V83H263.494ZM293.231 58.2727V83H288.751V58.2727H293.231ZM302.995 62.0277V58.2727H322.724V62.0277H315.081V83H310.638V62.0277H302.995ZM330.836 58.2727H335.895L341.944 69.2116H342.186L348.235 58.2727H353.294L344.299 73.7756V83H339.831V73.7756L330.836 58.2727Z" fill="white"/>
</svg>
